# xmcd CD database file
#
# Track frame offsets:
#	150
#	18692
#	31805
#	50332
#	63887
#	76885
#	96420
#	112585
#	128915
#	149602
#	167817
#	185027
#	196820
#	214032
#
# Disc length: 3067 seconds
#
# Revision: 15
# Processed by: cddbd v1.5.2PL0 Copyright (c) Steve Scherf et al.
# Submitted via: CDex 2.15
#
DISCID=bf0bf90e
DTITLE=The Beautiful South - Carry On Up The Charts - The Best Of TheBeautiful South
DYEAR=1994
DGENRE=Pop
TTITLE0=Song For Whoever
TTITLE1=You Keep It All In
TTITLE2=I'll Sail This Ship Alone
TTITLE3=A Little Time
TTITLE4=My Book
TTITLE5=Let Love Speak Up Itself
TTITLE6=Old Red Eyes Is Back
TTITLE7=We Are Each Other
TTITLE8=Bell Bottomed Tear
TTITLE9=36D
TTITLE10=Good As Gold (Stupid As Mud)
TTITLE11=Everybody's Talkin'
TTITLE12=Prettiest Eyes
TTITLE13=One Last Love Song
EXTD=YEAR: 1994
EXTT0=
EXTT1=
EXTT2=
EXTT3=
EXTT4=
EXTT5=
EXTT6=
EXTT7=
EXTT8=
EXTT9=
EXTT10=
EXTT11=
EXTT12=
EXTT13=
PLAYORDER=
